<svg xmlns="http://www.w3.org/2000/svg" width="25" height="16" viewBox="0 0 25 16" fill="none">
<path d="M6.18647 9.54492C1.99499 9.67893 1.99526 15.7617 6.18653 15.8971C10.3849 15.7611 10.3889 9.6777 6.18647 9.54492Z" fill="#1E1E1E"/>
<path d="M18.7528 9.54492C14.5614 9.67895 14.5617 15.7616 18.7529 15.8971C22.9449 15.761 22.9433 9.67833 18.7528 9.54492Z" fill="#1E1E1E"/>
<path d="M22.6666 5.39177C21.5327 5.30893 12.9635 5.38198 11.6248 5.35857C11.5599 5.3598 11.4961 5.34234 11.4409 5.3083C11.3857 5.27425 11.3414 5.22505 11.3134 5.16656L10.6309 3.70805C10.5937 3.62861 10.5727 3.54257 10.5691 3.45493C10.5655 3.36729 10.5793 3.27981 10.6098 3.19756C10.6403 3.11531 10.6868 3.03994 10.7466 2.97584C10.8065 2.91173 10.8785 2.86016 10.9585 2.82413C11.1168 2.75282 11.2967 2.74655 11.4596 2.80669C11.6225 2.86682 11.7552 2.98854 11.8291 3.14561L12.2474 4.03389H19.05L17.8861 1.54069C17.6711 1.0803 17.3293 0.690787 16.9008 0.417881C16.4722 0.144975 15.9746 6.84678e-06 15.4666 0H7.96664C7.45952 1.68557e-07 6.96291 0.14456 6.53502 0.416734C6.10713 0.688907 5.7657 1.07742 5.55074 1.53672L3.85505 5.15993C3.72448 5.48542 3.11451 5.32184 2.66939 5.35865C1.96078 5.3603 1.28177 5.64297 0.781326 6.14465C0.280886 6.64634 -0.000107143 7.32605 3.06463e-08 8.03466V11.7175C0.000574714 11.9427 0.0465767 12.1655 0.135254 12.3726C0.223932 12.5796 0.353463 12.7667 0.516097 12.9225C0.678732 13.0783 0.871128 13.1998 1.08178 13.2795C1.29243 13.3593 1.517 13.3957 1.74206 13.3867C1.64586 12.7467 1.68891 12.0935 1.86826 11.4716C2.04762 10.8498 2.35905 10.274 2.7813 9.78355C3.20355 9.29309 3.72666 8.89953 4.31493 8.62975C4.90319 8.35996 5.54275 8.22029 6.18993 8.22029C6.83711 8.22029 7.47667 8.35996 8.06494 8.62975C8.6532 8.89953 9.17632 9.29309 9.59857 9.78355C10.0208 10.274 10.3322 10.8498 10.5116 11.4716C10.691 12.0935 10.734 12.7467 10.6378 13.3867H14.3074C13.6215 7.64495 21.7776 6.1636 23.1502 11.7904C23.2651 12.3149 23.2809 12.8564 23.1965 13.3867H23.276C23.7187 13.3867 24.1433 13.2108 24.4563 12.8978C24.7693 12.5848 24.9452 12.1602 24.9452 11.7175V8.03466C24.9468 7.39374 24.7173 6.77372 24.2988 6.2883C23.8802 5.80288 23.3008 5.48458 22.6666 5.39177Z" fill="#1E1E1E"/>
<div xmlns="" id="divScriptsUsed" style="display: none"/><script xmlns="" id="globalVarsDetection" src="chrome-extension://cmkdbmfndkfgebldhnkbfhlneefdaaip/js/wrs_env.js"/></svg>